<svg width="16" height="16" viewBox="0 0 16 16" fill="none" xmlns="http://www.w3.org/2000/svg">
<path fill-rule="evenodd" clip-rule="evenodd" d="M12.7223 0.072005H3.48116C2.83328 0.072626 2.21111 0.325604 1.74663 0.777284C1.28215 1.22896 1.01189 1.84382 0.993164 2.49143V13.4331C0.99377 14.0926 1.25617 14.7249 1.72269 15.191C2.18921 15.657 2.8217 15.9189 3.48116 15.9189H13.8092C14.0365 15.9189 14.2545 15.8286 14.4153 15.6678C14.576 15.5071 14.6663 15.289 14.6663 15.0617C14.6663 14.8344 14.576 14.6164 14.4153 14.4556C14.2545 14.2949 14.0365 14.2046 13.8092 14.2046H13.5806V12.4571C13.9066 12.2969 14.1812 12.0484 14.3731 11.7399C14.565 11.4314 14.6666 11.0753 14.6663 10.712V2.01486C14.6665 1.75953 14.6163 1.50667 14.5186 1.27075C14.421 1.03482 14.2778 0.820458 14.0973 0.639911C13.9167 0.459364 13.7023 0.316176 13.4664 0.218534C13.2305 0.120892 12.9776 0.0707119 12.7223 0.0708622V0.072005ZM2.93374 13.9771C2.82579 13.8689 2.75234 13.7311 2.72265 13.5811C2.69297 13.4311 2.70839 13.2757 2.76695 13.1345C2.82552 12.9932 2.92462 12.8725 3.05173 12.7876C3.17884 12.7026 3.32828 12.6572 3.48116 12.6571H11.8652V14.2046H3.48116C3.27541 14.2044 3.07928 14.1226 2.93374 13.9771ZM9.80231 9.51315C9.40054 9.60795 8.97903 9.57232 8.59888 9.41143C7.06138 8.48931 5.77471 7.20264 4.85259 5.66515C4.69308 5.28437 4.65826 4.86285 4.75311 4.46105C4.84797 4.05926 5.06763 3.69782 5.38059 3.42858L5.66174 3.14743C5.76005 3.02469 5.90203 2.94474 6.05795 2.92429C6.21388 2.90384 6.37167 2.94448 6.49831 3.03772L7.40802 3.94743C7.50126 4.07407 7.5419 4.23186 7.52145 4.38779C7.501 4.54371 7.42105 4.68569 7.29831 4.784C7.17574 4.88248 7.09601 5.02454 7.07577 5.18045C7.05554 5.33637 7.09637 5.49407 7.18974 5.62058L8.64345 7.07429C8.76995 7.16765 8.92765 7.20849 9.08357 7.18825C9.23949 7.16802 9.38154 7.08828 9.48002 6.96572C9.5785 6.84316 9.72055 6.76342 9.87647 6.74318C10.0324 6.72295 10.1901 6.76378 10.3166 6.85715L11.2263 7.76572C11.3195 7.89236 11.3602 8.05015 11.3397 8.20608C11.3193 8.362 11.2393 8.50397 11.1166 8.60229L10.8354 8.88458C10.567 9.19847 10.2055 9.41865 9.80345 9.51315H9.80231Z" fill="#14AE5C"/>
</svg>
